<?xml version="1.0" encoding="UTF-8" ?>
<!DOCTYPE svg PUBLIC "-//W3C//DTD SVG 1.1//EN" "http://www.w3.org/Graphics/SVG/1.1/DTD/svg11.dtd">
<svg width="1000pt" height="566pt" viewBox="0 0 1000 566" version="1.1" xmlns="http://www.w3.org/2000/svg">
<g id="#9cdd00ff">
<path fill="#9cdd00" opacity="1.00" d=" M 211.35 80.34 C 213.28 78.80 215.81 80.23 216.79 82.14 C 227.48 98.15 237.30 114.93 244.00 133.05 C 247.69 143.51 250.63 154.92 248.06 165.99 C 245.07 179.87 234.29 191.54 220.93 196.14 C 207.41 201.02 191.54 198.57 180.15 189.80 C 169.14 181.59 162.52 167.74 163.55 154.00 C 164.55 141.68 170.85 130.60 177.42 120.43 C 187.24 105.91 198.73 92.48 211.35 80.34 M 180.34 142.37 C 175.92 147.91 174.33 156.07 176.08 163.04 C 179.66 177.69 196.67 187.02 210.97 183.08 C 211.84 180.00 207.94 180.38 206.08 179.50 C 192.09 175.73 180.68 161.81 182.44 146.96 C 182.78 145.11 183.31 141.38 180.34 142.37 Z" />
</g>
<g id="#a980cdff">
<path fill="#a980cd" opacity="1.00" d=" M 392.69 123.12 C 394.76 118.95 400.09 119.89 403.92 119.43 C 401.71 121.64 398.62 122.34 395.70 123.04 C 398.16 124.84 400.80 126.59 402.22 129.41 C 406.31 129.87 410.36 128.91 414.41 128.47 C 424.17 129.76 434.07 127.83 443.86 128.73 C 451.91 129.89 459.98 130.92 468.03 132.14 C 475.39 133.69 482.72 135.48 489.99 137.43 C 497.61 140.29 505.27 143.06 512.76 146.25 C 514.60 147.06 516.12 148.45 517.22 150.13 C 518.88 150.50 520.56 150.83 522.24 151.15 C 522.63 152.27 523.08 153.38 523.59 154.46 L 523.77 151.98 C 527.29 153.16 528.50 157.02 531.61 158.74 C 531.65 159.20 531.71 160.13 531.75 160.60 C 533.31 161.68 534.90 162.74 536.56 163.69 C 536.93 164.26 537.67 165.39 538.04 165.96 C 538.39 165.53 539.07 164.67 539.41 164.24 C 539.91 165.68 539.77 167.62 541.30 168.46 C 544.94 170.91 546.63 175.24 550.24 177.78 C 550.33 176.13 550.44 174.48 550.60 172.83 C 551.65 174.94 552.23 177.48 550.83 179.57 C 552.30 181.20 552.66 183.53 554.31 185.06 C 554.26 184.14 554.16 182.29 554.11 181.37 C 555.00 183.31 555.36 186.13 558.10 186.10 C 559.44 188.81 559.92 191.90 561.09 194.70 L 563.00 193.88 C 561.74 195.58 562.84 197.49 563.04 199.28 C 563.56 198.94 564.59 198.25 565.11 197.90 C 565.42 200.89 565.05 204.44 567.54 206.64 C 567.94 208.90 568.80 211.02 569.86 213.06 C 570.99 217.02 571.78 221.07 572.68 225.09 C 573.31 222.75 572.80 219.86 574.73 218.07 C 576.13 223.25 576.47 228.62 576.82 233.96 C 577.07 238.17 577.97 242.54 576.44 246.63 C 575.34 249.55 575.19 252.69 574.91 255.77 C 575.53 255.34 576.78 254.48 577.40 254.05 C 576.87 254.56 575.80 255.56 575.27 256.06 C 574.63 259.20 575.80 263.45 572.77 265.54 C 572.66 266.03 572.45 267.01 572.35 267.50 C 571.60 268.33 570.86 269.16 570.14 270.00 C 571.25 273.11 569.36 275.80 567.71 278.26 C 565.31 278.42 563.48 279.79 563.29 282.29 C 561.96 283.93 560.92 285.78 559.53 287.37 C 558.75 289.65 557.10 291.43 555.67 293.30 C 557.55 292.23 559.39 291.08 561.19 289.87 C 556.15 295.52 552.21 302.50 545.46 306.30 C 543.16 307.98 541.34 310.26 538.85 311.71 C 532.11 317.30 527.25 325.32 519.30 329.36 C 516.40 332.88 513.80 336.85 509.61 338.99 C 507.41 341.16 502.81 340.12 502.97 344.30 C 502.27 344.03 501.59 343.77 500.91 343.51 C 500.48 345.71 498.56 346.27 496.64 346.72 C 495.24 348.77 491.93 348.57 491.76 351.49 C 491.10 351.50 489.77 351.51 489.10 351.52 C 488.58 351.92 487.53 352.73 487.01 353.14 C 487.27 353.59 487.78 354.50 488.03 354.95 C 487.34 354.82 485.96 354.55 485.27 354.42 C 483.33 356.06 481.09 357.26 478.60 357.79 C 477.42 359.76 475.15 359.72 473.18 360.18 C 467.15 363.82 460.36 366.14 454.84 370.65 C 453.56 370.45 452.29 370.25 451.02 370.04 C 450.18 370.83 449.35 371.64 448.50 372.43 C 448.46 371.63 448.38 370.03 448.34 369.24 C 449.32 369.03 450.31 368.82 451.30 368.61 C 451.31 368.00 451.32 366.78 451.33 366.16 C 447.62 368.86 442.99 369.63 439.13 372.09 C 441.32 369.78 444.51 368.18 445.34 364.87 C 442.35 367.12 438.88 368.75 436.14 371.30 C 434.99 371.73 433.84 372.15 432.69 372.55 C 433.66 370.95 434.89 369.54 436.11 368.13 C 433.65 369.48 431.20 371.81 428.26 371.58 C 425.28 369.63 421.78 370.52 418.46 370.18 C 417.29 368.07 415.12 368.21 413.11 368.64 C 411.77 367.02 410.29 365.55 408.41 364.56 C 407.95 364.91 407.03 365.61 406.56 365.95 C 406.16 365.18 405.36 363.62 404.95 362.85 C 404.09 363.91 404.03 366.16 402.22 365.96 C 401.76 364.17 402.65 362.52 403.18 360.87 C 401.58 361.97 399.74 362.34 397.82 362.28 C 398.37 361.04 398.81 359.76 399.38 358.53 C 397.13 358.56 394.90 356.81 392.79 358.25 C 392.71 356.12 392.53 354.01 392.22 351.91 C 387.74 353.35 383.05 353.68 378.44 352.72 C 378.27 352.35 377.93 351.61 377.77 351.25 C 380.25 350.48 381.87 348.35 384.06 347.10 C 389.02 344.14 393.86 340.95 398.51 337.53 C 400.70 335.49 396.80 334.37 395.76 332.98 C 396.54 332.90 398.11 332.75 398.89 332.67 C 399.63 327.79 398.78 322.74 398.98 317.80 C 398.56 318.32 397.74 319.36 397.32 319.87 C 398.13 318.01 398.49 316.01 398.52 313.99 C 398.78 306.98 399.89 299.98 399.15 292.97 C 399.40 290.31 399.85 287.67 399.43 285.00 C 398.88 281.20 401.06 277.40 400.05 273.68 C 399.30 272.27 398.30 274.92 397.71 275.09 C 400.29 269.74 399.87 263.85 399.43 258.09 C 398.48 258.95 397.86 260.05 397.33 261.20 C 397.38 258.63 396.88 255.99 397.64 253.50 C 397.69 254.81 397.77 257.44 397.82 258.75 C 398.67 257.65 400.15 256.62 399.50 254.96 C 399.35 249.38 399.47 243.77 398.54 238.25 C 397.98 238.10 396.87 237.81 396.31 237.67 C 396.26 237.08 396.16 235.91 396.11 235.33 C 396.82 235.27 398.24 235.16 398.95 235.10 C 398.74 232.74 399.04 230.11 397.37 228.18 C 397.15 229.02 396.71 230.68 396.49 231.52 C 396.63 227.02 395.23 221.93 397.95 217.96 C 397.47 215.80 397.73 213.59 398.06 211.43 C 397.44 211.78 396.20 212.47 395.58 212.81 C 396.24 212.04 397.05 211.46 397.99 211.04 C 397.88 209.22 397.77 207.40 397.57 205.59 C 397.20 206.87 396.83 208.16 396.46 209.46 C 395.94 201.62 394.60 193.80 395.18 185.93 C 395.40 181.98 394.17 178.15 393.96 174.22 C 393.34 175.15 392.73 176.08 392.12 177.02 C 392.16 175.57 392.19 174.12 392.24 172.68 C 395.39 171.88 392.73 168.33 392.49 166.29 C 389.80 164.96 386.50 165.25 383.57 164.54 C 380.26 164.43 377.00 163.78 373.70 163.50 C 372.48 161.45 370.54 160.11 368.59 158.83 C 370.84 158.99 372.76 160.18 374.44 161.59 C 378.42 161.76 382.14 163.33 386.06 163.91 C 388.09 163.63 389.92 162.60 391.68 161.59 C 390.58 159.95 389.63 158.24 388.75 156.49 C 387.14 157.13 385.53 157.75 383.94 158.41 C 385.59 158.34 387.28 158.04 388.94 158.27 C 389.20 160.61 385.64 160.37 384.37 161.85 C 382.99 161.61 381.63 161.33 380.26 161.05 C 380.08 160.45 379.71 159.24 379.52 158.64 C 378.12 157.73 376.76 156.77 375.42 155.79 C 375.88 155.10 376.36 154.41 376.84 153.72 C 374.33 154.04 372.35 152.87 371.12 150.73 C 370.09 150.50 369.06 150.27 368.04 150.05 C 366.90 148.87 365.77 147.68 364.66 146.48 C 364.90 145.58 365.36 143.79 365.60 142.89 C 367.05 143.53 368.48 144.18 369.95 144.82 C 369.68 143.67 369.14 141.37 368.87 140.23 C 370.23 141.63 372.09 141.94 373.97 141.95 C 372.29 140.58 370.36 139.59 368.44 138.63 C 367.68 136.49 365.99 135.00 364.27 133.63 C 364.46 133.38 364.85 132.87 365.04 132.61 C 369.10 134.00 373.55 136.49 377.87 134.86 C 381.76 133.65 386.32 134.42 389.62 131.61 C 390.78 130.49 392.35 131.08 393.76 131.17 C 396.19 130.59 398.64 130.09 401.09 129.53 C 399.36 127.12 396.63 125.66 395.00 123.20 C 394.42 123.18 393.27 123.14 392.69 123.12 M 384.14 155.45 C 384.67 155.44 385.75 155.40 386.29 155.38 C 386.50 154.06 386.72 152.75 386.94 151.43 C 386.00 152.77 385.08 154.12 384.14 155.45 M 453.98 166.44 C 460.21 168.54 466.63 169.99 472.93 171.83 C 473.85 171.93 473.67 172.85 473.59 173.51 C 466.74 172.23 460.15 169.35 453.10 169.31 C 460.84 171.08 468.63 172.63 476.04 175.55 L 476.21 174.46 L 473.81 173.81 C 478.46 171.37 482.61 176.01 486.74 177.53 C 487.11 177.95 487.85 178.78 488.22 179.19 C 488.94 178.99 489.67 178.79 490.41 178.59 C 490.34 178.93 490.22 179.63 490.16 179.98 C 491.00 180.03 492.69 180.14 493.54 180.20 C 494.27 181.71 495.67 182.69 497.07 183.54 C 496.58 183.72 495.60 184.06 495.11 184.23 C 495.07 184.50 494.98 185.04 494.94 185.31 C 499.29 187.41 502.31 191.30 506.34 193.88 C 508.32 195.31 509.15 198.01 511.73 198.70 C 511.73 196.97 510.95 195.55 509.59 194.57 C 509.65 193.63 509.70 192.68 509.76 191.74 C 511.00 194.64 513.02 197.07 514.94 199.53 L 511.55 197.43 C 512.02 201.38 517.12 204.48 515.06 208.55 L 513.85 208.25 C 512.43 204.32 510.68 200.40 507.42 197.60 C 498.76 189.60 488.67 182.37 476.92 179.96 C 472.35 177.40 466.98 177.85 462.05 176.53 C 458.59 175.62 455.00 176.00 451.48 176.11 C 451.87 182.75 452.37 189.39 452.95 196.02 C 454.32 205.69 453.52 215.57 455.62 225.16 C 456.34 227.58 455.53 230.73 457.60 232.56 C 457.02 236.72 457.31 241.00 458.97 244.88 C 459.64 255.24 458.62 265.73 459.92 275.99 C 458.99 280.63 460.09 285.36 459.67 290.04 C 459.15 295.03 460.19 300.01 459.75 305.02 C 463.58 303.38 466.93 300.77 469.91 297.91 C 470.73 296.14 471.90 294.61 474.12 295.08 C 475.09 294.02 476.04 292.94 476.98 291.86 C 474.29 292.24 471.59 292.75 469.04 293.67 C 467.04 295.20 465.28 297.17 462.70 297.71 C 466.35 294.75 470.14 291.93 474.22 289.59 C 473.76 289.36 472.82 288.89 472.35 288.65 C 475.88 286.88 478.64 284.01 481.48 281.33 C 484.15 279.41 487.48 278.04 488.85 274.80 C 492.36 271.00 496.41 267.75 499.97 264.00 C 502.41 260.19 505.57 256.94 508.59 253.59 C 509.76 251.53 511.70 250.16 513.60 248.83 C 514.45 244.55 519.65 240.88 517.09 236.26 C 518.00 235.14 519.24 234.14 519.39 232.61 C 520.74 224.47 521.06 216.08 518.84 208.07 C 518.33 208.14 517.31 208.28 516.80 208.35 C 517.19 207.83 517.99 206.79 518.38 206.27 C 517.30 204.51 516.29 202.70 515.31 200.88 C 516.22 194.81 511.60 190.17 508.44 185.58 C 502.60 178.40 493.86 174.58 485.43 171.33 C 475.26 168.08 464.57 167.25 453.98 166.44 M 476.76 174.99 C 482.33 177.29 487.22 181.87 493.10 182.87 C 492.96 182.64 492.69 182.17 492.55 181.94 C 487.47 179.28 482.30 176.51 476.76 174.99 M 397.19 225.73 C 398.52 225.57 398.59 223.16 397.95 222.24 C 396.53 222.35 396.56 224.79 397.19 225.73 M 574.23 241.49 C 573.65 244.07 573.31 246.69 573.14 249.33 C 573.94 246.95 576.65 243.70 574.23 241.49 M 570.19 260.49 C 570.27 261.14 570.44 262.43 570.53 263.08 C 571.43 262.16 572.31 261.22 573.20 260.28 C 572.45 260.33 570.94 260.44 570.19 260.49 M 549.27 297.01 C 550.60 295.89 551.75 294.51 552.10 292.75 C 550.24 293.42 549.79 295.34 549.27 297.01 M 545.23 301.28 C 545.75 301.87 545.75 301.87 545.23 301.28 Z" />
<path fill="#a980cd" opacity="1.00" d=" M 410.73 121.99 C 411.27 119.20 414.90 120.08 416.99 119.37 C 414.99 120.44 412.91 121.37 410.73 121.99 Z" />
<path fill="#a980cd" opacity="1.00" d=" M 454.99 119.49 C 456.04 119.27 456.91 119.55 457.58 120.33 C 457.47 122.57 452.37 120.77 454.99 119.49 Z" />
<path fill="#a980cd" opacity="1.00" d=" M 388.58 121.11 C 389.31 119.88 390.34 119.63 391.68 120.36 C 392.76 122.29 388.65 123.35 388.58 121.11 Z" />
<path fill="#a980cd" opacity="1.00" d=" M 614.31 123.41 C 617.76 126.18 622.35 123.53 626.20 124.95 C 629.23 126.29 632.88 124.41 635.69 126.48 C 636.88 127.09 636.04 129.90 637.80 129.41 C 638.38 129.04 639.54 128.32 640.12 127.95 C 640.57 128.29 641.46 128.95 641.91 129.28 C 645.02 127.89 648.40 126.98 651.81 127.90 C 652.70 131.35 651.59 134.85 651.70 138.35 C 652.30 137.97 653.50 137.21 654.10 136.83 C 654.37 137.24 654.91 138.06 655.18 138.47 C 658.21 137.59 658.02 141.24 658.41 143.19 C 660.79 152.63 659.46 162.48 660.80 172.06 C 661.71 183.16 662.37 194.27 662.81 205.39 C 661.63 206.37 659.45 207.08 660.03 209.05 C 660.28 212.68 660.56 216.32 660.24 219.96 C 659.63 217.95 659.05 215.92 658.45 213.92 C 656.41 217.58 657.73 222.09 657.59 226.09 C 659.24 235.66 658.38 245.41 658.99 255.04 C 661.67 264.09 661.45 273.66 660.63 282.96 C 661.74 287.92 660.33 293.00 661.61 297.93 C 662.70 302.25 662.80 306.72 663.55 311.11 C 664.28 314.58 662.17 317.69 661.20 320.89 C 660.66 324.25 660.97 327.69 660.95 331.08 C 660.37 331.16 659.21 331.31 658.63 331.38 C 658.30 334.20 657.10 336.99 657.59 339.86 C 658.05 342.00 657.60 344.16 657.28 346.29 C 656.34 346.70 655.41 347.11 654.48 347.52 C 652.17 352.80 645.65 353.30 641.86 357.05 C 638.12 359.60 636.78 364.42 633.03 366.92 C 631.38 366.80 629.80 366.32 628.20 365.97 C 627.14 366.73 626.09 367.49 625.04 368.25 C 624.66 367.57 623.90 366.21 623.51 365.53 C 623.58 366.70 623.70 369.04 623.77 370.21 C 621.54 364.42 617.39 359.60 615.34 353.76 C 614.59 349.81 612.23 346.45 611.42 342.52 C 611.77 342.46 612.46 342.36 612.81 342.31 C 612.89 342.86 613.06 343.97 613.14 344.52 C 613.41 343.65 613.95 341.90 614.22 341.03 C 613.77 341.15 612.88 341.38 612.43 341.49 C 612.95 338.21 611.75 335.07 610.94 331.96 C 606.51 316.25 605.04 299.96 602.34 283.91 C 600.40 269.99 597.57 256.17 596.66 242.13 C 596.48 239.29 596.14 236.46 595.19 233.78 C 593.24 225.63 593.44 217.18 592.46 208.90 C 589.92 192.34 590.06 175.47 586.97 158.99 C 587.72 154.00 586.56 149.00 586.92 143.98 C 586.68 139.54 588.53 135.44 589.44 131.19 C 592.61 130.26 595.94 129.57 598.78 127.81 C 598.91 127.11 599.16 125.71 599.28 125.02 C 604.18 123.38 609.45 125.01 614.52 124.37 L 614.31 123.41 Z" />
<path fill="#a980cd" opacity="1.00" d=" M 720.08 124.96 C 727.67 124.45 735.32 123.30 742.89 124.74 C 756.95 125.86 770.77 128.69 784.50 131.77 C 791.81 135.67 800.36 136.83 807.05 141.89 C 817.06 145.19 825.11 152.30 832.98 159.03 C 835.98 160.93 839.23 162.62 841.35 165.59 C 843.07 168.20 846.93 169.30 846.95 172.88 C 849.36 175.26 851.60 177.72 853.47 180.56 C 862.05 187.72 864.14 199.51 871.29 207.75 C 872.41 209.15 872.24 211.78 874.48 212.03 C 874.90 207.06 870.94 203.47 869.96 198.84 C 870.82 199.87 871.91 200.79 872.46 202.06 C 874.09 207.38 877.18 212.16 878.29 217.67 C 878.86 218.57 880.70 220.03 879.94 221.09 C 879.38 220.62 878.27 219.67 877.72 219.20 C 877.63 221.10 877.24 223.14 878.51 224.77 C 878.94 224.30 879.79 223.36 880.22 222.89 C 883.39 224.86 879.96 228.56 879.80 231.25 C 880.81 230.19 881.83 229.14 882.92 228.14 C 882.86 228.98 882.74 230.65 882.68 231.49 C 883.54 232.33 883.97 233.37 883.96 234.63 L 881.68 234.51 C 883.01 235.84 884.40 237.18 885.24 238.91 C 884.66 240.30 884.09 241.70 883.57 243.12 C 885.74 243.08 885.14 245.47 885.20 246.92 C 884.97 252.37 884.86 257.86 883.63 263.21 C 882.91 266.07 883.82 269.34 881.76 271.77 C 881.40 272.64 880.69 274.39 880.33 275.26 C 881.64 275.18 882.97 275.13 884.29 274.88 C 883.64 275.62 883.00 276.37 882.39 277.12 C 881.96 276.54 881.54 275.96 881.12 275.38 C 878.77 281.04 877.62 287.13 874.74 292.57 C 872.84 296.31 872.17 300.58 870.24 304.32 C 868.15 307.78 865.74 311.10 862.66 313.75 C 862.89 314.56 863.14 315.38 863.41 316.20 C 862.52 316.76 861.56 317.05 860.53 317.06 L 862.45 316.10 C 861.89 315.52 861.33 314.94 860.78 314.39 C 860.84 315.51 860.97 317.76 861.03 318.88 C 860.49 318.80 859.42 318.63 858.88 318.55 C 856.05 324.99 850.89 330.10 845.58 334.57 C 844.33 334.07 843.19 333.33 842.00 332.74 C 841.74 334.72 840.92 336.55 840.23 338.40 C 839.75 338.58 838.80 338.95 838.33 339.14 C 837.39 340.18 837.10 342.69 835.43 342.53 C 835.10 342.29 834.45 341.81 834.13 341.57 C 832.06 342.87 830.17 344.43 828.12 345.74 C 828.79 344.73 829.39 343.68 830.09 342.67 C 829.28 342.35 827.65 341.72 826.84 341.41 C 824.58 343.23 822.23 344.93 819.82 346.53 C 816.27 347.34 813.57 350.37 809.82 350.90 C 811.63 347.67 816.42 348.42 817.64 344.73 C 814.54 345.86 811.58 347.38 808.36 348.17 C 807.57 350.32 805.42 351.12 803.40 351.65 C 801.39 352.49 800.08 349.99 798.15 349.77 C 798.28 350.36 798.53 351.54 798.66 352.12 C 798.19 352.53 797.27 353.34 796.80 353.75 C 795.69 353.55 794.59 353.37 793.50 353.20 C 792.94 354.09 792.40 354.99 791.86 355.88 C 790.35 356.25 788.86 356.62 787.38 357.00 C 787.39 356.45 787.42 355.36 787.43 354.81 C 787.20 355.44 786.75 356.71 786.52 357.35 C 784.23 358.53 781.88 359.60 779.56 360.71 C 777.18 360.54 775.65 362.74 773.57 363.51 C 769.46 365.28 765.46 367.39 761.05 368.31 C 759.40 368.54 758.49 370.05 757.61 371.27 C 753.04 372.39 748.28 372.40 743.86 374.19 L 744.40 372.46 C 744.09 372.62 743.47 372.93 743.16 373.09 C 741.15 373.82 739.45 375.13 737.83 376.48 C 738.01 375.55 738.35 373.69 738.52 372.77 C 738.02 373.71 737.53 374.67 737.06 375.64 C 733.06 375.51 729.30 377.54 725.64 378.96 C 728.01 375.20 732.92 374.23 736.83 372.72 C 736.77 372.02 736.65 370.62 736.58 369.92 C 738.31 369.52 740.06 369.03 741.88 369.33 C 741.82 368.76 741.70 367.62 741.64 367.05 C 740.89 366.95 739.39 366.74 738.64 366.63 C 741.72 363.63 747.06 364.14 749.90 360.51 C 750.54 360.50 751.82 360.48 752.46 360.47 C 753.34 359.48 754.22 358.50 755.11 357.52 C 752.50 358.40 749.94 359.43 747.28 360.13 C 750.07 356.94 754.58 356.59 757.75 354.00 C 756.50 353.34 755.27 352.69 754.08 351.98 C 755.70 350.82 757.30 350.76 758.87 351.79 C 761.08 349.44 763.87 347.78 766.87 346.61 C 769.17 344.40 771.66 342.39 774.54 340.96 C 773.69 340.23 772.80 339.54 771.94 338.87 C 772.74 338.16 773.56 337.46 774.38 336.76 C 774.85 337.78 775.37 338.79 775.96 339.77 C 777.66 338.46 778.21 336.51 777.60 334.52 C 778.96 333.93 780.34 333.34 781.71 332.75 C 782.31 331.60 782.93 330.46 783.55 329.33 C 781.80 329.85 779.84 330.05 778.58 331.49 C 776.09 334.01 772.57 334.86 769.37 336.06 C 771.34 333.53 774.29 332.01 776.40 329.58 C 781.43 328.59 784.02 323.24 788.83 322.19 C 788.15 324.19 785.70 325.09 784.70 327.00 C 786.46 326.22 787.91 324.95 789.27 323.62 C 789.43 323.00 789.75 321.76 789.91 321.14 C 794.87 317.53 800.72 315.31 805.45 311.35 C 808.15 309.07 811.12 307.09 813.63 304.58 C 815.42 302.29 817.22 300.00 819.07 297.74 C 815.52 299.48 812.35 302.13 810.38 305.59 C 807.80 308.78 803.71 309.74 800.00 310.87 C 794.22 314.75 787.75 317.78 782.78 322.74 C 781.77 323.16 780.75 323.54 779.72 323.89 C 778.67 325.81 777.89 328.70 775.13 328.41 C 774.55 329.75 774.01 331.11 773.22 332.35 C 771.24 332.68 769.34 333.35 767.51 334.12 C 767.91 335.16 768.41 336.15 768.90 337.17 C 768.15 336.90 766.65 336.36 765.90 336.09 C 763.84 336.83 761.68 337.47 759.90 338.79 C 761.61 338.60 763.95 337.51 765.04 339.48 C 762.85 339.82 760.70 339.60 758.61 338.80 C 764.16 340.02 759.73 342.36 757.97 343.33 C 755.85 342.93 753.97 343.53 752.65 345.30 C 753.87 345.45 756.32 345.73 757.54 345.88 C 755.38 347.44 752.96 346.29 750.65 345.96 C 750.53 346.71 750.30 348.21 750.18 348.96 C 750.04 348.52 749.76 347.65 749.62 347.21 C 747.76 347.84 745.67 349.32 744.33 347.07 C 744.26 347.50 744.11 348.38 744.04 348.81 C 741.66 349.36 739.24 351.13 736.78 349.99 C 737.00 350.82 737.43 352.47 737.65 353.30 C 739.62 352.24 741.81 351.70 744.00 351.25 C 742.48 353.02 740.41 353.97 738.06 353.72 C 737.68 354.74 737.26 355.75 736.81 356.74 C 733.81 357.52 730.33 356.84 728.01 359.33 C 727.84 358.71 727.49 357.46 727.32 356.83 C 724.92 358.23 723.44 360.44 723.49 363.29 C 720.58 363.22 721.29 368.21 718.39 366.61 C 718.22 366.78 717.87 367.12 717.69 367.29 C 714.06 367.00 710.90 369.51 707.20 369.06 C 706.66 368.63 705.59 367.78 705.05 367.36 C 703.83 368.03 702.65 368.73 701.50 369.49 C 701.19 369.40 700.58 369.21 700.27 369.12 C 697.26 370.07 694.21 370.89 691.18 371.76 C 691.61 371.07 692.48 369.67 692.91 368.98 C 691.61 369.01 690.31 369.06 689.03 369.12 C 688.27 368.32 687.51 367.53 686.76 366.74 C 685.01 367.09 683.57 368.06 682.32 369.28 C 681.21 369.00 680.10 368.73 679.02 368.45 C 678.46 368.86 677.34 369.67 676.78 370.08 C 676.24 369.84 675.16 369.36 674.62 369.12 C 674.22 369.30 673.42 369.66 673.02 369.85 C 670.57 368.70 668.36 367.15 666.23 365.51 C 664.85 366.45 663.35 366.94 661.77 366.25 C 660.92 366.43 660.08 366.61 659.25 366.79 C 659.44 366.40 659.82 365.62 660.00 365.23 C 662.20 365.45 664.58 366.23 666.68 365.14 C 669.83 363.44 674.63 364.63 676.17 360.61 C 673.94 358.73 671.53 357.04 668.66 356.32 C 670.70 354.79 674.99 354.04 673.02 350.66 C 674.88 350.72 676.35 351.87 675.53 353.84 C 676.04 353.01 676.58 352.20 677.13 351.41 C 676.52 350.85 675.29 349.74 674.68 349.19 C 671.70 349.79 669.11 353.02 665.96 352.08 C 667.93 351.28 669.93 350.55 671.85 349.60 C 671.30 349.01 670.21 347.82 669.66 347.23 C 673.22 344.32 677.64 342.79 682.13 342.04 C 682.40 341.76 682.95 341.20 683.23 340.92 C 683.07 340.50 682.74 339.66 682.58 339.24 C 683.24 339.27 683.90 339.35 684.56 339.49 L 685.00 340.05 L 685.52 340.53 C 687.21 339.32 689.30 340.65 691.02 339.67 C 691.32 338.71 691.61 337.75 691.88 336.78 C 692.85 336.72 693.83 336.70 694.80 336.72 C 694.32 336.17 693.35 335.09 692.86 334.54 C 697.02 334.92 700.63 332.70 703.61 330.07 C 703.39 323.83 703.12 317.60 702.46 311.39 L 701.01 311.86 C 702.29 308.59 702.65 305.14 702.63 301.66 C 701.99 301.57 700.72 301.37 700.08 301.27 C 701.18 297.07 699.84 292.80 700.32 288.55 C 701.22 286.86 701.69 285.00 702.16 283.16 L 699.94 284.17 C 700.29 283.09 701.01 280.93 701.36 279.85 L 699.26 280.84 C 699.65 278.00 700.78 275.07 699.95 272.21 C 699.68 264.09 699.26 255.97 698.80 247.86 C 697.76 240.62 697.09 233.22 698.17 225.95 C 698.16 221.25 696.68 216.70 696.87 211.99 C 695.93 203.91 696.32 195.73 695.07 187.69 C 693.16 184.88 693.96 181.41 693.91 178.24 C 693.48 178.66 692.63 179.50 692.20 179.92 C 690.11 179.72 688.02 179.54 685.93 179.40 C 688.44 178.50 690.98 177.70 693.54 176.96 C 693.61 173.29 692.29 169.73 692.95 166.06 C 693.41 163.98 692.45 162.10 691.69 160.25 C 691.37 160.61 690.73 161.32 690.41 161.68 C 689.76 160.16 688.79 159.07 686.99 159.72 L 686.97 159.14 C 688.74 159.34 690.51 159.44 692.29 159.55 C 691.81 158.48 692.16 155.56 690.31 155.81 C 687.75 155.92 683.51 156.47 682.91 153.00 C 682.40 153.48 681.38 154.44 680.87 154.92 C 680.47 154.31 679.67 153.09 679.27 152.49 C 678.43 152.63 676.76 152.92 675.92 153.07 C 675.78 152.64 675.49 151.77 675.34 151.34 C 674.85 150.79 673.85 149.70 673.35 149.15 C 672.37 149.74 671.40 150.36 670.42 150.95 C 669.86 148.69 668.67 146.70 666.23 146.19 C 666.43 146.04 666.84 145.73 667.05 145.58 C 669.98 146.06 672.96 146.00 675.92 145.68 C 674.22 144.17 672.43 142.10 669.90 142.99 C 670.07 140.78 668.96 139.82 666.80 140.25 C 666.60 139.70 666.19 138.60 665.99 138.05 C 667.21 137.90 668.43 137.76 669.67 137.62 C 669.37 136.31 669.04 135.02 668.61 133.76 C 669.41 133.77 671.02 133.79 671.82 133.80 C 671.83 133.37 671.84 132.50 671.84 132.07 C 688.14 131.40 703.95 126.99 720.08 124.96 M 754.13 170.38 C 753.56 170.33 752.41 170.23 751.83 170.19 C 751.31 171.83 750.94 173.51 750.64 175.20 C 753.61 176.68 756.93 176.93 760.15 177.50 C 766.74 179.71 773.78 179.88 780.53 181.67 C 789.33 182.91 797.63 186.15 805.84 189.41 C 812.08 192.83 818.85 195.52 824.13 200.42 C 821.11 191.63 812.71 186.81 806.37 180.67 C 797.21 171.81 783.98 170.25 771.99 168.41 C 766.62 168.46 761.25 168.45 755.90 168.73 C 755.46 169.14 754.58 169.96 754.13 170.38 M 752.11 180.05 C 751.79 183.08 752.80 185.98 753.62 188.84 C 753.08 189.06 752.01 189.49 751.47 189.71 C 752.05 189.65 753.22 189.53 753.80 189.47 C 754.08 189.93 754.64 190.83 754.91 191.28 C 754.10 188.03 752.89 184.47 754.66 181.30 C 755.02 187.56 755.72 193.80 755.98 200.06 C 756.31 201.79 754.81 203.01 754.03 204.35 C 755.08 207.18 756.24 210.02 756.42 213.08 C 757.06 220.39 758.08 227.68 758.21 235.03 C 758.38 237.97 758.14 241.02 759.18 243.83 C 759.39 249.56 759.41 255.30 758.95 261.02 C 759.11 267.99 760.17 275.06 758.74 281.97 C 758.10 283.24 757.31 284.42 756.66 285.67 C 757.28 285.35 758.51 284.69 759.12 284.36 C 758.53 289.18 758.01 294.01 758.47 298.86 C 758.18 302.38 758.54 306.46 756.47 309.49 C 756.66 304.62 756.90 299.75 756.39 294.89 C 754.28 296.27 755.30 298.66 756.23 300.46 C 754.78 303.77 752.90 306.87 751.13 310.01 C 751.46 310.44 752.12 311.32 752.45 311.76 C 752.40 312.55 752.29 314.13 752.24 314.92 C 753.57 314.43 754.90 313.93 756.23 313.40 C 756.77 312.38 757.33 311.37 757.93 310.37 C 757.80 311.52 757.55 313.82 757.43 314.97 L 759.46 314.40 C 757.52 315.91 755.39 317.25 752.91 317.52 C 754.17 317.59 755.44 317.61 756.72 317.72 C 760.09 316.09 763.63 314.83 767.29 314.01 C 765.57 315.74 763.44 316.94 760.96 317.01 C 760.72 317.40 760.24 318.17 760.00 318.56 C 758.06 318.69 756.44 319.64 755.03 320.88 C 754.19 320.88 752.53 320.89 751.69 320.89 C 751.54 322.30 751.39 323.70 751.30 325.12 L 750.10 325.12 L 750.12 325.97 C 752.28 324.96 754.93 324.24 755.97 321.83 C 759.62 321.59 762.48 319.04 765.67 317.53 C 770.31 314.58 775.76 312.78 779.48 308.54 C 780.44 308.06 781.38 307.54 782.31 306.97 C 779.88 307.13 778.30 309.07 776.50 310.42 C 774.88 310.64 773.39 311.30 771.91 311.91 C 770.59 311.19 769.29 310.45 768.00 309.71 C 768.82 309.42 770.46 308.83 771.28 308.53 C 770.80 307.80 770.34 307.06 769.89 306.33 C 770.41 306.54 771.46 306.97 771.98 307.18 C 777.37 305.66 781.20 301.45 786.00 298.82 C 786.96 295.32 791.49 296.00 794.13 294.38 C 794.96 292.91 796.02 291.60 797.17 290.37 C 798.17 290.62 799.18 290.87 800.20 291.12 C 800.46 289.86 800.60 288.58 800.68 287.31 C 801.53 286.80 803.22 285.80 804.06 285.30 C 804.04 285.94 804.01 287.22 804.00 287.87 L 804.26 284.47 L 806.38 285.52 C 805.71 285.02 805.06 284.52 804.42 284.02 C 806.10 282.60 807.93 281.31 809.26 279.53 C 808.70 279.28 807.59 278.78 807.03 278.53 C 811.21 276.88 814.27 273.51 817.00 270.07 C 816.75 269.67 816.25 268.87 815.99 268.47 C 817.53 267.00 818.67 265.22 819.33 263.20 C 820.67 259.55 823.71 257.01 826.01 254.02 C 828.24 248.90 830.38 243.71 832.26 238.45 C 834.25 229.04 833.08 218.94 828.78 210.31 C 826.76 203.03 819.95 198.66 813.64 195.37 C 809.74 193.41 806.21 190.61 801.90 189.61 C 797.80 188.52 794.24 185.82 789.94 185.45 C 783.23 184.48 776.75 182.23 769.98 181.66 C 764.02 181.16 758.08 180.33 752.11 180.05 M 702.28 296.41 C 701.50 297.46 701.45 298.53 702.13 299.63 C 703.59 299.80 703.78 296.22 702.28 296.41 M 801.97 302.77 C 800.45 304.33 803.17 305.69 804.31 304.36 C 805.67 303.01 802.94 301.69 801.97 302.77 M 751.33 316.17 C 751.76 316.79 751.76 316.79 751.33 316.17 M 851.13 319.15 C 847.74 321.42 845.59 325.12 841.99 327.12 C 839.81 328.38 838.18 330.30 837.04 332.52 C 838.31 331.59 839.73 330.96 841.34 330.92 C 841.40 330.53 841.51 329.76 841.56 329.38 C 844.79 327.81 846.02 324.10 848.86 322.08 C 850.25 321.09 851.71 320.20 853.15 319.26 C 852.48 318.90 851.74 318.36 851.13 319.15 M 806.55 319.25 C 806.73 322.58 809.43 317.62 806.55 319.25 M 853.30 323.35 C 850.07 325.18 847.13 327.56 844.67 330.34 C 845.06 330.72 845.85 331.49 846.24 331.87 C 847.36 331.69 848.11 330.64 848.99 329.98 C 850.34 327.35 852.86 325.69 854.88 323.62 C 854.48 323.55 853.69 323.41 853.30 323.35 M 795.28 328.18 C 793.83 328.81 793.70 329.48 794.91 330.18 C 796.33 329.54 796.46 328.87 795.28 328.18 M 820.67 333.21 C 819.75 334.30 818.52 334.77 817.00 334.61 C 817.32 335.50 817.67 336.40 818.02 337.30 C 819.06 336.18 820.25 335.21 821.52 334.35 C 821.22 333.97 820.94 333.59 820.67 333.21 M 835.87 335.86 C 833.51 336.46 834.71 339.18 834.54 340.88 C 834.81 340.91 835.34 340.97 835.60 341.00 C 836.84 338.59 839.01 336.94 840.85 335.02 C 839.15 335.23 837.49 335.39 835.87 335.86 M 779.20 336.31 C 779.86 336.78 779.86 336.78 779.20 336.31 M 786.20 349.20 C 786.78 349.74 786.78 349.74 786.20 349.20 M 775.69 355.02 C 776.91 356.57 779.76 353.81 779.55 352.36 C 777.98 352.04 776.11 353.56 775.69 355.02 Z" />
<path fill="#a980cd" opacity="1.00" d=" M 493.94 128.25 C 497.46 128.11 500.22 130.48 503.19 131.96 C 509.01 135.24 514.91 138.56 519.98 142.95 C 511.84 139.23 505.03 133.02 496.45 130.22 C 495.29 130.01 494.56 129.15 493.94 128.25 Z" />
<path fill="#a980cd" opacity="1.00" d=" M 362.59 143.16 C 364.10 142.66 364.63 143.27 364.17 145.00 C 362.67 145.49 362.14 144.87 362.59 143.16 Z" />
<path fill="#a980cd" opacity="1.00" d=" M 385.43 170.85 C 386.75 170.69 388.08 170.71 389.42 170.67 C 389.39 171.55 389.36 172.42 389.33 173.30 C 386.61 173.65 384.16 175.13 381.42 175.26 C 382.70 173.74 383.91 172.14 385.43 170.85 Z" />
<path fill="#a980cd" opacity="1.00" d=" M 501.96 188.15 C 504.07 189.12 506.65 189.91 507.47 192.38 C 505.41 191.28 503.48 189.93 501.96 188.15 Z" />
<path fill="#a980cd" opacity="1.00" d=" M 166.11 205.54 C 170.59 203.42 176.10 203.77 180.00 206.94 C 185.89 210.89 189.48 218.51 196.86 219.95 C 209.78 219.50 222.21 224.85 232.47 232.38 C 232.74 238.58 232.67 244.79 232.80 250.99 C 232.32 255.12 234.41 258.92 234.66 262.98 C 235.07 268.32 235.63 273.71 234.83 279.04 C 234.11 283.70 235.76 288.32 234.97 292.99 C 235.81 299.65 237.19 306.25 237.72 312.97 C 237.50 315.79 236.00 318.28 235.19 320.95 C 234.70 324.30 234.95 327.71 234.95 331.09 C 234.37 331.16 233.21 331.30 232.63 331.37 C 232.20 334.53 230.95 337.68 231.71 340.89 C 232.01 342.69 231.49 344.50 231.28 346.30 C 230.33 346.71 229.38 347.13 228.44 347.56 C 227.25 350.58 224.24 352.04 221.56 353.49 C 217.33 355.28 213.67 358.42 211.23 362.30 C 209.99 363.96 208.84 365.94 206.95 366.92 C 205.34 366.79 203.78 366.31 202.21 365.97 C 201.14 366.74 200.08 367.50 199.01 368.27 C 198.67 367.61 197.98 366.28 197.64 365.62 C 197.59 366.53 197.50 368.34 197.45 369.25 C 194.98 363.63 190.83 358.82 189.09 352.89 C 188.35 349.26 186.10 346.18 185.42 342.52 C 185.77 342.46 186.46 342.36 186.81 342.31 C 186.89 342.86 187.06 343.97 187.15 344.52 C 187.41 343.65 187.94 341.92 188.20 341.05 C 187.76 341.16 186.88 341.36 186.44 341.46 C 187.00 337.15 185.04 333.14 184.16 329.03 C 183.24 324.34 181.72 319.79 181.10 315.06 C 178.02 294.66 174.85 274.28 171.76 253.89 C 170.68 246.89 171.20 239.62 168.95 232.84 C 167.15 223.84 167.27 214.62 166.11 205.54 Z" />
<path fill="#a980cd" opacity="1.00" d=" M 563.34 285.21 C 564.58 285.92 562.70 289.15 561.34 288.24 C 560.89 286.93 562.17 285.59 563.34 285.21 Z" />
<path fill="#a980cd" opacity="1.00" d=" M 768.31 311.96 C 769.90 311.45 770.47 312.02 770.04 313.68 C 768.46 314.16 767.89 313.58 768.31 311.96 Z" />
<path fill="#a980cd" opacity="1.00" d=" M 700.34 321.23 C 700.76 321.89 700.76 321.89 700.34 321.23 Z" />
<path fill="#a980cd" opacity="1.00" d=" M 185.20 342.05 C 184.99 339.45 182.85 336.74 184.25 334.16 C 185.30 336.63 187.03 339.50 185.20 342.05 Z" />
<path fill="#a980cd" opacity="1.00" d=" M 611.20 342.05 C 610.88 339.42 609.00 336.74 610.17 334.08 C 611.27 336.55 613.06 339.46 611.20 342.05 Z" />
<path fill="#a980cd" opacity="1.00" d=" M 747.67 351.84 C 751.32 350.65 754.39 347.68 758.36 347.60 C 756.43 349.39 754.35 351.00 752.07 352.32 C 752.91 352.81 753.77 353.31 754.62 353.83 C 749.34 355.06 745.37 359.90 739.71 359.77 C 742.81 356.96 746.87 355.61 750.34 353.34 C 749.44 352.84 748.54 352.34 747.67 351.84 Z" />
<path fill="#a980cd" opacity="1.00" d=" M 657.03 350.16 C 659.98 348.70 657.09 353.50 657.03 350.16 Z" />
<path fill="#a980cd" opacity="1.00" d=" M 799.20 352.20 C 799.81 352.78 799.81 352.78 799.20 352.20 Z" />
<path fill="#a980cd" opacity="1.00" d=" M 800.03 359.53 C 799.10 358.56 800.57 356.65 801.73 357.29 C 802.44 358.25 801.21 360.18 800.03 359.53 Z" />
<path fill="#a980cd" opacity="1.00" d=" M 744.08 360.03 C 744.84 359.10 747.49 360.07 746.10 361.22 C 745.27 362.07 742.71 361.30 744.08 360.03 Z" />
<path fill="#a980cd" opacity="1.00" d=" M 796.27 361.29 C 796.95 361.75 796.95 361.75 796.27 361.29 Z" />
<path fill="#a980cd" opacity="1.00" d=" M 735.69 367.78 C 736.16 367.58 737.09 367.20 737.55 367.00 C 738.68 368.32 735.68 369.60 735.69 367.78 Z" />
<path fill="#a980cd" opacity="1.00" d=" M 404.82 377.14 C 406.22 374.30 408.38 371.90 409.48 368.90 C 409.05 371.77 411.08 374.22 410.81 377.07 C 409.88 378.09 408.78 378.91 407.72 379.78 C 407.52 378.24 407.27 376.71 406.93 375.20 C 406.40 375.68 405.34 376.65 404.82 377.14 Z" />
<path fill="#a980cd" opacity="1.00" d=" M 770.87 372.74 C 771.85 370.98 773.83 370.39 775.65 369.87 C 774.68 371.67 772.65 372.17 770.87 372.74 Z" />
<path fill="#a980cd" opacity="1.00" d=" M 403.15 376.21 C 406.49 376.72 401.22 378.90 403.15 376.21 Z" />
</g>
<g id="#000000ff">
<path fill="#000000" opacity="1.00" d=" M 751.33 316.17 C 751.76 316.79 751.76 316.79 751.33 316.17 Z" />
<path fill="#000000" opacity="1.00" d=" M 162.09 395.62 C 165.09 395.56 168.09 395.54 171.09 395.57 C 171.10 404.76 171.10 413.95 171.08 423.15 C 173.74 419.26 178.14 416.26 183.04 417.13 C 191.07 417.50 196.52 425.45 196.75 432.98 C 196.98 442.87 196.79 452.76 196.83 462.65 C 193.89 462.65 190.96 462.66 188.03 462.70 C 187.73 453.45 188.02 444.20 187.89 434.96 C 187.97 431.47 186.20 427.54 182.62 426.50 C 178.15 424.85 172.47 427.30 171.20 431.99 C 170.85 442.21 171.34 452.47 170.97 462.70 C 168.03 462.65 165.09 462.65 162.16 462.67 C 162.05 440.32 162.19 417.97 162.09 395.62 Z" />
<path fill="#000000" opacity="1.00" d=" M 353.90 395.58 C 356.90 395.54 359.91 395.55 362.91 395.63 C 362.80 417.97 362.96 440.33 362.83 462.68 C 359.90 462.65 356.96 462.65 354.03 462.69 C 353.96 461.04 353.93 459.39 353.89 457.75 C 350.05 461.12 345.30 463.80 340.05 463.76 C 329.48 464.35 319.37 456.72 316.48 446.64 C 315.03 441.32 315.25 435.49 317.42 430.40 C 321.03 421.97 329.71 415.81 338.99 415.88 C 344.57 415.60 349.86 418.17 353.81 421.99 C 354.02 413.18 353.85 404.38 353.90 395.58 M 335.50 425.59 C 330.54 426.97 326.46 431.13 325.17 436.11 C 322.81 444.20 328.80 453.31 337.13 454.36 C 345.51 456.01 354.68 448.75 353.97 440.02 C 354.95 430.51 344.42 422.75 335.50 425.59 Z" />
<path fill="#000000" opacity="1.00" d=" M 531.43 421.86 C 531.44 413.08 531.29 404.29 531.51 395.51 C 534.46 395.55 537.42 395.57 540.38 395.59 C 540.41 417.90 540.29 440.21 540.44 462.52 C 537.42 462.67 534.41 462.69 531.39 462.64 C 531.40 461.08 531.41 459.51 531.43 457.96 C 527.52 460.89 523.13 463.70 518.07 463.74 C 507.42 464.57 497.08 457.04 494.07 446.91 C 491.97 439.78 493.10 431.59 497.68 425.63 C 503.07 418.12 513.05 414.18 522.07 416.53 C 525.62 417.40 528.59 419.65 531.43 421.86 M 513.39 425.49 C 504.02 427.52 499.02 439.59 504.41 447.59 C 508.97 455.46 521.06 456.97 527.31 450.31 C 531.63 446.55 532.20 440.29 530.96 435.03 C 528.61 428.01 520.61 423.52 513.39 425.49 Z" />
<path fill="#000000" opacity="1.00" d=" M 694.10 395.54 C 697.09 395.49 700.09 395.48 703.09 395.51 C 703.02 417.91 703.24 440.30 702.98 462.70 C 700.03 462.65 697.09 462.65 694.15 462.67 C 694.06 440.29 694.17 417.92 694.10 395.54 Z" />
<path fill="#000000" opacity="1.00" d=" M 212.16 427.16 C 217.09 419.22 226.84 414.55 236.11 416.30 C 240.19 416.93 243.71 419.28 246.74 421.97 C 246.83 421.31 247.02 419.99 247.11 419.34 C 250.01 419.37 252.90 419.38 255.80 419.36 C 255.93 433.77 255.75 448.19 255.90 462.61 C 252.87 462.69 249.84 462.70 246.82 462.65 C 246.84 461.02 246.86 459.38 246.88 457.75 C 243.02 461.08 238.30 463.81 233.05 463.76 C 222.39 464.35 212.17 456.61 209.40 446.40 C 207.72 439.97 208.51 432.78 212.16 427.16 M 228.45 425.68 C 219.16 427.96 214.52 440.12 220.13 447.94 C 224.87 455.70 236.97 456.88 243.05 450.10 C 247.14 446.37 247.50 440.42 246.50 435.33 C 244.29 427.98 235.81 423.44 228.45 425.68 Z" />
<path fill="#000000" opacity="1.00" d=" M 437.83 426.90 C 442.36 419.89 450.62 415.40 459.02 416.00 C 464.05 416.07 468.53 418.71 472.29 421.85 C 472.33 421.22 472.41 419.97 472.45 419.35 C 475.43 419.35 478.41 419.37 481.40 419.49 C 481.32 433.84 481.29 448.19 481.41 462.54 C 478.38 462.71 475.35 462.72 472.33 462.67 C 472.33 461.10 472.34 459.54 472.36 457.99 C 468.46 460.88 464.12 463.69 459.09 463.74 C 448.47 464.58 438.13 457.11 435.08 447.01 C 433.13 440.33 433.93 432.73 437.83 426.90 M 454.36 425.58 C 445.82 427.47 440.68 437.72 444.39 445.68 C 447.69 453.89 458.83 457.30 466.08 452.17 C 473.87 447.44 474.76 435.03 467.98 429.09 C 464.43 425.65 459.12 424.42 454.36 425.58 Z" />
<path fill="#000000" opacity="1.00" d=" M 550.63 440.97 C 549.66 428.75 559.73 417.00 571.91 416.01 C 580.23 415.01 589.02 418.71 593.76 425.69 C 584.96 434.99 575.57 443.73 566.74 453.02 C 573.80 456.29 582.85 454.35 587.18 447.67 C 590.20 448.60 593.19 449.67 596.15 450.82 C 591.79 457.82 584.57 463.57 576.01 463.73 C 563.15 464.97 550.81 453.86 550.63 440.97 M 564.32 429.21 C 559.62 433.43 558.93 440.40 560.64 446.18 C 567.46 439.49 574.26 432.79 580.88 425.90 C 575.26 424.32 568.56 424.80 564.32 429.21 Z" />
<path fill="#000000" opacity="1.00" d=" M 645.56 422.65 C 648.80 419.75 652.39 416.84 656.84 416.20 C 666.11 414.60 675.70 419.50 680.50 427.45 C 683.92 432.95 684.66 439.88 683.10 446.11 C 680.40 456.61 669.84 464.57 658.93 463.74 C 653.86 463.70 649.42 460.94 645.56 457.92 C 645.57 464.27 645.52 470.61 645.61 476.96 C 642.61 477.09 639.62 477.12 636.63 477.10 C 636.58 457.89 636.70 438.69 636.57 419.49 C 639.55 419.36 642.54 419.35 645.53 419.37 C 645.54 420.19 645.56 421.83 645.56 422.65 M 656.38 425.50 C 651.34 426.79 646.90 430.93 645.72 436.05 C 645.37 439.91 645.01 444.25 647.37 447.61 C 650.23 452.11 655.53 455.02 660.91 454.55 C 668.77 454.30 675.43 446.76 674.69 438.93 C 674.46 430.04 664.95 423.06 656.38 425.50 Z" />
<path fill="#000000" opacity="1.00" d=" M 717.80 428.63 C 722.05 420.66 730.96 415.31 740.07 416.00 C 745.09 416.08 749.54 418.74 753.31 421.85 C 753.34 421.22 753.40 419.97 753.43 419.35 C 756.41 419.35 759.40 419.37 762.40 419.49 C 762.29 432.99 762.35 446.51 762.37 460.02 C 762.25 460.66 762.02 461.95 761.90 462.59 C 759.05 462.83 756.18 462.67 753.33 462.67 C 753.33 461.10 753.34 459.54 753.35 457.99 C 749.46 460.89 745.11 463.70 740.07 463.74 C 729.14 464.60 718.53 456.66 715.83 446.13 C 714.40 440.32 714.92 433.93 717.80 428.63 M 735.33 425.58 C 728.95 427.13 723.97 433.37 724.23 440.00 C 724.04 447.81 731.16 454.83 738.97 454.58 C 746.66 454.81 754.11 447.87 753.41 439.99 C 754.38 430.61 744.14 423.02 735.33 425.58 Z" />
<path fill="#000000" opacity="1.00" d=" M 772.62 438.99 C 772.63 425.99 785.02 414.68 797.98 415.92 C 806.54 416.08 813.77 421.82 818.15 428.81 C 815.20 429.90 812.25 430.98 809.29 432.03 C 806.32 428.20 802.03 425.00 796.97 425.10 C 788.89 424.57 781.44 431.91 781.80 439.99 C 781.64 447.96 789.06 455.06 797.02 454.54 C 802.00 454.57 806.32 451.53 809.19 447.66 C 812.15 448.62 815.09 449.64 818.04 450.66 C 813.73 458.56 805.20 464.27 796.01 463.77 C 783.12 463.93 771.73 451.86 772.62 438.99 Z" />
<path fill="#000000" opacity="1.00" d=" M 825.60 439.92 C 825.11 426.95 837.02 415.18 850.00 415.89 C 857.49 415.75 864.24 419.88 868.96 425.45 C 860.09 434.71 850.93 443.70 841.80 452.69 C 845.40 454.94 849.99 454.95 853.99 453.88 C 857.56 452.94 860.05 450.07 862.57 447.57 C 865.35 448.72 868.19 449.73 871.05 450.68 C 866.84 458.23 858.87 463.91 850.01 463.77 C 837.10 464.48 825.21 452.84 825.60 439.92 M 839.25 429.28 C 834.58 433.51 833.99 440.43 835.61 446.21 C 842.43 439.52 849.25 432.81 855.85 425.91 C 850.22 424.28 843.48 424.83 839.25 429.28 Z" />
<path fill="#000000" opacity="1.00" d=" M 277.59 422.75 C 282.53 414.85 295.19 415.38 300.20 422.89 C 303.00 426.63 303.91 431.42 303.82 436.01 C 303.80 444.90 303.84 453.78 303.79 462.67 C 300.85 462.65 297.91 462.65 294.98 462.69 C 294.66 453.13 295.08 443.56 294.78 434.00 C 294.44 428.51 288.20 424.63 283.07 426.45 C 280.33 427.42 277.27 429.75 277.58 432.98 C 277.58 442.87 277.60 452.76 277.59 462.65 C 274.58 462.69 271.56 462.67 268.55 462.51 C 268.68 448.18 268.66 433.84 268.56 419.51 C 271.55 419.36 274.55 419.34 277.55 419.36 C 277.56 420.21 277.58 421.90 277.59 422.75 Z" />
<path fill="#000000" opacity="1.00" d=" M 384.53 422.06 C 387.17 418.43 391.65 416.22 396.17 417.27 C 399.29 417.57 400.99 420.41 402.31 422.90 C 405.01 417.24 412.60 415.77 417.98 418.11 C 421.58 419.92 422.50 424.31 422.54 428.00 C 422.60 439.55 422.54 451.10 422.56 462.65 C 419.54 462.68 416.52 462.66 413.50 462.54 C 413.64 453.37 413.50 444.19 413.59 435.02 C 413.50 432.79 413.75 430.42 412.79 428.34 C 411.25 425.24 405.97 425.31 404.49 428.41 C 403.55 431.15 403.59 434.11 403.50 436.98 C 403.49 445.53 403.50 454.09 403.51 462.64 C 400.50 462.67 397.50 462.66 394.50 462.55 C 394.56 451.85 394.78 441.13 394.44 430.44 C 394.41 426.95 390.33 425.02 387.39 426.56 C 384.56 427.82 384.80 431.39 384.59 433.98 C 384.51 443.53 384.59 453.09 384.56 462.65 C 381.56 462.68 378.56 462.67 375.57 462.53 C 375.70 448.16 375.59 433.78 375.62 419.40 C 378.59 419.37 381.56 419.37 384.54 419.37 C 384.54 420.05 384.53 421.39 384.53 422.06 Z" />
</g>
</svg>
