<?xml version="1.0" encoding="iso-8859-1"?>
<!-- Generator: Adobe Illustrator 16.0.0, SVG Export Plug-In . SVG Version: 6.00 Build 0)  -->
<!DOCTYPE svg PUBLIC "-//W3C//DTD SVG 1.1//EN" "http://www.w3.org/Graphics/SVG/1.1/DTD/svg11.dtd">
<svg xmlns="http://www.w3.org/2000/svg" xmlns:xlink="http://www.w3.org/1999/xlink" version="1.1" id="Capa_1" x="0px" y="0px" width="512px" height="512px" viewBox="0 0 627.639 627.639" style="enable-background:new 0 0 627.639 627.639;" xml:space="preserve">
<g>
	<path d="M322.553,627.639c-36.899,0-74.1-2.601-111.399-7.7c-27.3-3.5-56.1-8.8-85.8-15.9c-2.9-0.7-4.7-3.6-4-6.5   c0.7-2.899,3.6-4.7,6.5-4c29.3,7,57.8,12.3,84.7,15.7c76.5,10.5,152.6,10.1,226.2-1.2c36.101-5.2,73.3-13.6,110.7-24.8   c4.5-1.5,9.2-2.8,14.2-4.2c13.3-3.8,27.1-7.8,38.2-14.1c2-1.2,4-3,5.6-5.101c3.5-5.5,1-14.1-1.9-21.8l-0.699-2.1   c-7.5-22-15.301-44.8-28.5-63.7c-18.2-25.5-41.2-33.1-71.801-41.1h-0.199c-23.9-6-48.601-12.101-73.4-18.2   c-1.3-0.3-2.4-0.601-3.6-0.9c-8.2-2.1-16.601-4.3-23.801-9.7c-18.8-12.8-27.199-39.6-27.199-60.399   c0-24.4,11.899-39.301,23.399-53.701c5.4-6.8,11.101-13.8,15.601-22c13.5-24.1,20.6-51.8,20.6-80.2c0-39.2-14.1-75.1-41.8-106.5   c-17.4-17.4-22.3-27.4-16.5-33.5c7.3-8.3,15.899-22.2,17.399-32.5c-22.1,10.9-43.1,21-69.199,25.6c-37.7,6.4-68.5,13.3-93.3,38.6   c-26.9,27.4-42.3,67.1-42.3,108.9c0,27.4,6.7,54.1,19.4,77.2c4.2,7.5,9.8,14.5,15.3,21.4c10.7,13.5,21.7,27.4,24.3,46.3   c3.3,23.5-5.8,56.7-26.6,71.5c-8.2,5.5-17.9,8-27.3,10.5c-23.9,6-48.5,12.101-73.8,18.3c-21.9,5.2-41.3,10.4-56.3,22.7   c-24.3,19.601-33.1,52.8-40.2,79.4c-2.1,8.2-4.7,19.2-6.6,30c-0.5,2.899-3.3,4.899-6.2,4.399s-4.9-3.3-4.4-6.199   c2-11.2,4.7-22.301,6.8-30.801c7.5-28.199,16.8-63.3,43.9-85.1c16.8-13.7,37.4-19.3,60.6-24.8c25.2-6.2,49.8-12.3,73.6-18.2   c8.9-2.399,17.3-4.6,23.9-9c17.1-12.1,24.8-41.2,22-61.2c-2.2-16-11.8-28.2-22.1-41c-5.7-7.2-11.6-14.6-16.2-22.8   c-13.6-24.8-20.8-53.2-20.8-82.4c0-44.5,16.5-87,45.4-116.4c27.1-27.7,59.5-35,99.1-41.7c24.9-4.3,44.5-14,67.2-25.1l6.2-3.1   c1.4-0.7,3-0.7,4.5-0.1c1.4,0.6,2.5,1.8,3,3.3c5.9,18.4-14.7,44-18.7,48.9c0.7,2.2,4.3,8.3,15.5,19.6c0.101,0.1,0.2,0.2,0.2,0.2   c29.6,33.5,44.6,71.8,44.6,113.8c0,30.2-7.6,59.8-22,85.4c-5,8.9-10.899,16.3-16.6,23.5c-11.3,14.1-21.1,26.3-21.1,47   c0,17.399,7.1,41,22.6,51.6c0.1,0,0.1,0.101,0.2,0.101c5.5,4.1,12.6,6,20.2,7.899c1.199,0.3,2.399,0.601,3.6,0.9   c24.8,6,49.5,12.2,73.4,18.2l0.199,0.1c31.801,8.3,57.7,16.9,78,45.3c14.101,20.2,22.101,43.7,29.9,66.4l0.7,1.899   c3.8,10.2,6.899,22,0.6,31.5c-0.1,0.101-0.1,0.2-0.2,0.2c-2.5,3.3-5.5,6.101-8.8,8.101c-12.3,7.1-26.7,11.199-40.7,15.199   c-4.899,1.4-9.6,2.7-14,4.2c-38,11.4-75.8,19.9-112.3,25.2C401.654,624.739,362.253,627.639,322.553,627.639z" fill="#a980cd"/>
</g>
<g>
</g>
<g>
</g>
<g>
</g>
<g>
</g>
<g>
</g>
<g>
</g>
<g>
</g>
<g>
</g>
<g>
</g>
<g>
</g>
<g>
</g>
<g>
</g>
<g>
</g>
<g>
</g>
<g>
</g>
</svg>
